PathFileType	4	(X/Y/Z)	C:/Users/beibeiliu/ov580/test_trc/User3\sequence.10_training_dense_right.trc
DataRate	CameraRate	NumFrames	NumMarkers	Units	OrigDataRate	OrigDataStartFrame	OrigNumFrames
120	120	20	19	mm	120	198	263
Frame#	Time	ThumbCMC			ThumbMCP			ThumbIP			ThumbTip			IndexMCP			IndexPIP			IndexTip			MiddleMCP			MiddlePIP			MiddleTip			RingMCP			RingPIP			RingTip			PinkyMCP			PinkyPIP			PinkyTip			BackHand1			BackHand2			BackHand3	
		X0	Y0	Z0	X1	Y1	Z1	X2	Y2	Z2	X3	Y3	Z3	X4	Y4	Z4	X5	Y5	Z5	X6	Y6	Z6	X7	Y7	Z7	X8	Y8	Z8	X9	Y9	Z9	X10	Y10	Z10	X11	Y11	Z11	X12	Y12	Z12	X13	Y13	Z13	X14	Y14	Z14	X15	Y15	Z15	X16	Y16	Z16	X17	Y17	Z17	X18	Y18	Z18	
197	1.64167	140.526	-17.2643	46.7751	133.319	-3.52969	18.5495	125.521	11.4861	-1.75939	116.257	19.2077	-14.1782	149.145	-31.4795	-28.5371	124.138	-53.2091	-23.0517	130.103	-48.6621	6.24479	159.211	-46.622	-28.0283	134.561	-67.7044	-20.6257	150.194	-54.373	17.6539	167.147	-62.4666	-19.7705	145.816	-82.1894	-6.74302	145.833	-67.8789	21.2263	180.871	-78.5679	-9.61066	153.635	-87.8124	1.04675	157.228	-74.5376	24.8591	196.693	-40.835	22.3569	192.346	-39.9354	58.8153	173.448	-13.8729	38.1438	
198	1.65	139.886	-21.8371	46.4739	130.977	-12.7429	23.4464	121.085	5.35909	0.593335	108.549	19.0413	-12.3701	148.565	-30.8515	-27.787	126.613	-57.9973	-23.8451	130.863	-48.0321	9.29444	161.908	-53.0391	-28.6116	134.82	-70.295	-17.8925	147.874	-56.9023	17.568	171.413	-65.7322	-18.6143	147.12	-84.1763	-7.36064	147.092	-70.9996	19.6028	181.353	-78.2078	-10.9814	157.665	-90.8063	1.23256	159.425	-79.4094	25.9098	196.563	-40.3512	25.2139	194.186	-38.3955	54.2844	173.077	-18.954	39.8556	
199	1.65833	139.599	-24.457	43.4469	127.011	-11.5623	20.2076	118.499	1.82489	-1.14598	105.563	12.0751	-11.9481	147.62	-37.0613	-29.2176	124.672	-57.5712	-26.3457	131.388	-54.6648	6.18202	160.141	-52.3485	-30.1105	137.958	-72.5608	-20.724	152.406	-60.2516	16.3075	172.263	-65.5215	-20.1279	148.597	-83.7807	-9.84869	152.615	-72.0767	22.1123	185.518	-77.12	-10.6855	159.857	-91.3979	-0.25754	161.803	-78.5188	25.4554	198.788	-39.8191	21.6099	194.413	-40.1806	56.9109	168.906	-15.4737	39.5424	
200	1.66667	136.963	-28.8682	46.4454	124.828	-19.5435	25.4286	113.094	-1.88278	1.69269	99.7292	7.84344	-8.44384	145.104	-33.5718	-27.7396	126.726	-61.3929	-25.3719	132.697	-56.3562	5.87648	160.433	-53.0276	-30.0596	142.161	-75.9805	-21.0694	152.463	-63.4657	15.7749	173.507	-65.2458	-21.9552	154.648	-86.8301	-9.46985	156.604	-73.4783	22.6623	187.429	-76.3894	-13.1309	162.489	-90.2044	-1.84883	164.658	-79.9222	25.9534	194.683	-33.8629	22.7366	196.179	-41.4588	58.3418	169.236	-19.0349	39.3588	
201	1.675	134.338	-30.6241	49.7803	122.291	-18.6723	24.4623	110.538	-6.03684	7.00081	97.2324	4.34212	-7.28459	144.284	-33.5785	-27.3182	128.648	-64.0569	-26.6189	132.301	-58.6019	5.12766	161.962	-52.1618	-29.7702	139.856	-75.4828	-21.8318	152.801	-62.1872	16.8997	176.452	-63.4139	-21.4333	159.266	-88.0533	-13.7329	154.232	-75.7222	19.1313	188.523	-73.0268	-13.181	168.169	-92.7233	-6.18026	168.002	-81.2515	23.7313	197.678	-36.8629	22.1086	194.191	-38.1829	54.608	163.799	-20.8047	41.7401	
202	1.68333	135.533	-32.8894	46.634	122.284	-22.6731	26.3647	108.626	-5.79291	5.36385	98.5355	2.96991	-9.56819	141.719	-35.7027	-30.5003	128.895	-64.5964	-27.4219	134.306	-61.1537	4.97989	159.701	-47.9684	-29.0579	143.964	-77.9867	-22.6824	149.336	-65.0984	13.3432	172.847	-61.3234	-24.319	158.316	-87.7418	-13.6097	157.132	-78.9006	16.6971	189.44	-73.2228	-16.2022	168.257	-90.4806	-8.75227	169.39	-84.7274	22.4173	196.956	-34.0654	24.3798	196.465	-41.584	53.0968	165.42	-22.1055	40.3549	
203	1.69167	133.517	-32.0411	46.4852	120.125	-22.2408	28.5501	108.698	-8.52574	5.84929	94.794	2.1073	-6.87761	141.911	-37.7376	-30.6587	126.887	-64.8317	-29.1961	132.652	-59.7406	6.38766	159.5	-51.7689	-33.3438	144.651	-77.6531	-24.7581	154.713	-66.6966	12.346	176.142	-63.0292	-25.3608	158.268	-88.3801	-14.9081	160.271	-78.108	16.8899	187.056	-72.1995	-19.5126	168.895	-89.9014	-9.47137	169.098	-85.8154	18.1288	195.943	-33.9629	22.04	198.633	-42.3433	56.1382	165.577	-20.667	38.5978	
204	1.7	135.623	-37.8128	48.7736	122.93	-26.2825	26.5892	107.041	-9.84351	8.22622	94.2225	-2.53863	-4.00031	145.354	-40.0941	-32.2989	128.331	-67.2581	-28.7654	137.22	-63.118	5.08633	161.97	-52.9824	-33.3545	148.916	-80.2405	-25.9328	153.264	-67.2512	12.0281	174.146	-64.143	-28.2585	162.477	-90.6498	-15.7919	158.356	-78.604	14.908	190.117	-71.2074	-19.0944	173.805	-93.9331	-11.0413	170.172	-86.7369	16.1414	195.546	-36.9182	21.5549	197.656	-42.1527	51.847	165.63	-24.3075	39.0855	
205	1.70833	136.583	-39.2575	46.581	120.727	-26.6913	30.2157	107.524	-12.6517	9.3733	96.4803	-3.61338	-6.35385	145.95	-42.1919	-31.9866	130.944	-69.7081	-28.4697	134.956	-67.3156	1.2214	164.883	-52.016	-31.5686	150.549	-80.4817	-27.7766	158.569	-67.3375	11.6856	178.579	-66.0755	-29.2422	162.877	-89.2476	-20.5119	159.568	-80.9678	11.5154	192.043	-69.8641	-17.4089	174.529	-93.3015	-13.8996	171.068	-86.4364	16.8728	199.601	-36.5118	20.3199	195.784	-41.273	53.8189	167.955	-25.011	38.0382	
206	1.71667	138.095	-40.1963	45.7384	122.937	-28.8633	25.5734	107.502	-13.5409	5.63575	95.8713	-5.77085	-6.82724	148.538	-43.4742	-32.3885	133.642	-70.5763	-31.1422	139.1	-68.2194	2.02856	166.559	-52.2184	-32.442	153.285	-83.2638	-29.4187	157.39	-70.3378	9.83789	181.868	-64.4815	-26.6638	166.034	-92.7035	-17.5801	165.174	-81.1599	14.7605	194.253	-72.3738	-18.223	174.159	-93.5425	-12.8726	173.407	-88.6282	15.4335	196.286	-36.2868	20.6259	199.2	-44.1899	50.2864	168.826	-28.735	36.7782	
207	1.725	139.341	-44.4442	46.6466	127.307	-33.4254	22.7907	109.36	-16.8821	4.63956	97.4807	-10.8101	-8.17657	148.893	-44.9152	-33.4089	138.3	-74.7698	-33.0747	140.252	-71.709	-1.61816	166.43	-58.3619	-35.6671	155.625	-85.2791	-30.2512	158.648	-71.4617	9.70979	184.257	-66.1694	-25.9203	168.876	-94.7583	-16.664	167.017	-85.6956	12.2377	196.964	-73.8182	-17.125	180.615	-98.801	-10.6314	176.429	-89.4281	16.2088	199.141	-37.2626	20.6757	202.296	-44.9506	54.285	169.913	-28.976	39.2738	
208	1.73333	140.547	-45.2333	43.566	127.043	-36.7543	23.1279	113.325	-21.9195	0.477781	99.1249	-12.0764	-13.8967	151.209	-45.1918	-33.4062	138.728	-74.4968	-36.7315	143.391	-71.7124	0.804012	168.225	-59.2339	-36.129	159.408	-88.5163	-30.3191	162.707	-76.3049	7.8641	184.496	-67.3642	-27.3015	171.311	-93.8555	-21.895	169.503	-86.946	12.442	197.058	-78.6384	-20.0914	185.442	-100.36	-11.8924	179.328	-90.9778	16.6007	199.182	-39.305	19.6296	201.731	-43.1176	49.8749	172.055	-30.026	33.388	
209	1.74167	139.826	-46.4426	43.0825	128.858	-39.1108	18.5681	114.918	-28.1019	-1.16712	99.8884	-18.6478	-17.8087	153.577	-47.1678	-32.7823	142.999	-78.8161	-35.2666	144.946	-77.8996	-3.26313	173.399	-60.7866	-34.5426	161.861	-91.3232	-29.1504	162.142	-75.9556	7.87148	186.496	-70.4568	-28.1441	174.403	-99.2485	-15.1473	172.916	-84.9586	15.6259	199.339	-79.4886	-19.6519	182.889	-100.276	-8.60618	181.851	-91.0249	18.6014	204.546	-41.5052	16.6588	204.324	-46.5328	49.3635	174.484	-32.8295	32.9249	
210	1.75	144.076	-50.8011	42.6376	129.862	-42.9707	16.0352	113.493	-33.5929	-5.40834	99.0026	-29.7448	-16.356	152.583	-52.579	-35.8333	144.452	-82.0961	-36.8209	143.589	-77.2169	-0.00160691	172.405	-66.7276	-37.5163	158.116	-92.9175	-27.5954	163.69	-79.0156	7.52609	188.704	-70.94	-27.4422	173.893	-98.9196	-17.5184	170.531	-88.3274	12.9668	203.763	-78.3176	-17.9903	186.371	-100.575	-9.99206	184.413	-89.8418	17.3177	199.786	-40.4524	17.7839	202.143	-43.5509	51.5157	171.202	-32.043	34.3339	
211	1.75833	137.605	-50.3423	41.2699	121.73	-45.4181	21.6971	105.453	-36.2183	-2.23257	91.2954	-32.9258	-16.1591	150.571	-56.1144	-36.8789	141.903	-85.4097	-35.1249	143.239	-78.7077	0.297202	169.734	-63.5707	-35.9785	160.655	-93.6346	-28.7571	163.319	-79.7546	8.04583	184.331	-73.5682	-28.9135	177.702	-101.425	-16.9158	174.826	-88.9772	14.0045	201.765	-80.0789	-19.827	188.073	-100.004	-12.6759	186.247	-89.4459	19.3973	197.741	-38.3485	15.1936	201.486	-45.5314	50.0196	170.029	-31.9789	31.6299	
212	1.76667	135.008	-50.243	40.4175	122.442	-48.0919	20.7551	100.945	-38.241	-0.46494	86.8741	-34.743	-15.8875	147.002	-55.5359	-36.1961	139.66	-84.7237	-35.4263	141.27	-80.3848	0.554058	167.564	-66.842	-37.9225	156.983	-93.591	-29.1041	162.479	-80.6939	7.98546	185.938	-75.7238	-30.1446	173.57	-100.612	-17.026	171.716	-88.8026	13.8312	199.123	-80.8309	-20.8486	185.068	-101.243	-9.2374	185.37	-88.4099	18.878	195.863	-37.2818	16.7147	195.864	-43.1276	46.8081	164.752	-32.4562	32.6023	
213	1.775	134.201	-52.419	43.2771	116	-45.7445	19.9785	97.7548	-39.5319	-0.794775	82.4695	-34.4837	-16.2216	142.533	-53.5169	-32.5254	135.69	-85.4746	-34.0164	139.187	-80.2998	2.00576	163.625	-62.6899	-35.6171	155.279	-95.06	-28.1149	163.334	-77.6292	9.26768	177.701	-72.0384	-30.3953	171.769	-98.9525	-19.7305	166.132	-87.204	13.8433	195.477	-76.8326	-20.6327	184.017	-100.458	-9.71509	179.515	-88.8442	15.6891	193.345	-36.6765	18.9382	195.645	-42.5762	50.2579	160.675	-32.6688	37.0975	
214	1.78333	130.901	-52.3163	46.5856	116.776	-48.4107	24.9049	93.5568	-38.0771	3.39041	78.5046	-35.9943	-7.77724	137.534	-53.3724	-32.229	133.619	-84.5187	-32.4565	136.745	-79.9029	1.63485	156.583	-61.6397	-35.4301	153.479	-92.5928	-29.9491	155.673	-78.2216	9.22976	173.306	-69.8781	-30.79	166.837	-98.8652	-18.9775	165.265	-89.7705	12.5755	192.752	-76.5838	-22.4545	177.382	-97.9807	-10.6398	176.099	-87.2483	16.3118	191.949	-35.675	14.2564	196.42	-39.9831	46.7707	161.172	-33.5813	36.7179	
215	1.79167	130.066	-51.2624	47.2513	112.394	-44.6547	25.6437	92.6142	-37.4271	9.12976	74.6815	-32.63	-1.41762	133.753	-52.6067	-31.3426	126.434	-83.9929	-28.9197	133.865	-78.8465	3.12963	148.558	-60.6108	-35.2957	145.256	-90.3509	-29.1639	154.861	-76.9064	9.31159	171.082	-69.1296	-29.9968	159.381	-96.7104	-18.1846	159.223	-89.3155	11.072	184.858	-73.9329	-24.0921	175.361	-98.0605	-13.5888	172.579	-91.1954	15.0034	186.33	-34.9904	16.6658	191.932	-40.3068	47.0042	155.569	-29.8791	36.4427	
216	1.8	126.292	-50.052	50.7084	110.508	-45.0752	30.151	89.3487	-35.2513	11.0527	69.8914	-28.7196	4.30634	124.898	-49.0727	-27.0222	119.875	-80.768	-26.6788	131.281	-77.8716	5.49889	143.119	-55.4114	-31.4974	139.6	-89.1479	-23.9616	145.442	-75.3431	11.0913	160.545	-66.7948	-30.6832	155.092	-94.0665	-20.8999	154.51	-85.1015	13.4794	178.73	-72.3635	-23.93	165.092	-94.0833	-12.9343	170.576	-87.0493	17.2526	180.996	-32.6517	13.928	191.571	-39.4981	43.4329	156.142	-32.5232	39.8734	
